<svg height="512px" id="Layer_1" style="enable-background:new 0 0 512 512;" version="1.1" viewBox="0 0 512 512"
	width="512px" xmlns="http://www.w3.org/2000/svg" xmlns:xlink="http://www.w3.org/1999/xlink">
	<defs>
		<radialGradient id="gradient-1-0" gradientUnits="userSpaceOnUse" cx="475.19" cy="105.822" r="136.502"
			spreadMethod="pad" gradientTransform="matrix(1.917401, 0.062562, -0.032611, 0.999468, -730.088745, -19.26399)"
			xlink:href="#gradient-1"></radialGradient>
		<linearGradient id="gradient-1">
			<stop offset="0.12" style="stop-color: rgb(254, 254, 254);"></stop>
			<stop offset="1" style="stop-color: rgb(168, 168, 168);"></stop>
		</linearGradient>
		<radialGradient gradientUnits="userSpaceOnUse" cx="547.822" cy="190.486" r="160.268" id="gradient-0-1"
			gradientTransform="matrix(1.625045, 1.341365, -1.110002, 1.344752, -492.769623, -786.652893)"
			xlink:href="#gradient-0"></radialGradient>
		<linearGradient id="gradient-0">
			<stop style="stop-color: rgb(248, 216, 200);" offset="0"></stop>
			<stop style="stop-color: rgb(216, 184, 176);" offset="0.651"></stop>
		</linearGradient>
		<linearGradient id="gradient-3-0" gradientUnits="userSpaceOnUse" x1="231.994" y1="313.504" x2="231.994" y2="362.859"
			gradientTransform="matrix(-0.010495, 0.999945, -3.411316, -0.035805, 1403.38916, 108.703384)"
			xlink:href="#gradient-3"></linearGradient>
		<linearGradient id="gradient-3">
			<stop style="stop-color: rgb(219, 1, 1);" offset="0"></stop>
			<stop style="" offset="1"></stop>
		</linearGradient>
	</defs>
	<g>
		<path
			d="M512,255.999C512,114.483,397.427,0,255.811,0   C114.577,0,0,114.483,0,255.999C0,397.118,114.577,512,255.811,512C397.427,512,512,397.118,512,255.999L512,255.999z"
			style="fill-rule:evenodd;clip-rule:evenodd;fill:#43a047;"></path>
		<path
			d="M162.709,118.858h193.736l44.16,193.987h-16.308l-0.399,68.771   h16.707v11.528H138.449c-25.064-1.989-22.68-46.107-23.872-58.038l21.887-197.172C136.464,129.192,145.604,118.858,162.709,118.858   L162.709,118.858z"
			style="fill-rule:evenodd;clip-rule:evenodd;fill:#FFD05B;"></path>
		<path
			d="M162.709,118.858h18.313L164.3,393.146h-25.851   c-30.628-3.583-31.422-51.679-21.886-77.916l19.9-177.294C136.464,129.192,145.604,118.858,162.709,118.858L162.709,118.858z"
			style="fill-rule:evenodd;clip-rule:evenodd;fill:#324A5E;"></path>
		<path
			d="M141.632,312.846H395.44   c-11.542,23.453-11.143,46.904,0,69.564H141.632C114.577,382.41,114.577,312.846,141.632,312.846L141.632,312.846z"
			style="fill-rule:evenodd;clip-rule:evenodd;fill:#FEFEFE;"></path>
		<path
			d="M125.321,325.969h264.951   c-0.398,0.789-0.398,1.587-0.794,2.383H124.527C124.926,327.556,124.926,326.758,125.321,325.969L125.321,325.969z    M388.286,333.521c0,0.793,0,1.191-0.398,1.984H122.542c0-0.793,0.395-1.191,0.395-1.984H388.286z M387.489,340.678   c-0.396,0.789-0.396,1.586-0.396,1.98H121.35c0.395-0.395,0.395-1.191,0.395-1.98H387.489z M387.094,348.229   c0,0.395,0,1.191,0,1.985H121.35c0-0.794,0-1.591,0-1.985H387.094z M387.489,355.383c0,0.793,0,1.59,0,1.984H122.143   c0-0.395-0.398-1.191-0.398-1.984H387.489z M388.682,362.536c0,0.797,0.398,1.595,0.398,2.383H123.734   c-0.399-0.788-0.399-1.586-0.399-2.383H388.682z M390.671,370.092c0,0.793,0.396,1.191,0.396,1.984H127.312   c-0.399-0.394-0.798-0.793-1.192-1.191c-0.399-0.395-0.399-0.793-0.399-0.793H390.671z"
			style="fill-rule:evenodd;clip-rule:evenodd;fill:#ECF0F1;"></path>
	</g>
	<g transform="matrix(0.305071, 0, 0.033384, 0.305071, 222.745148, 107.229301)" style="">
		<polygon style="stroke: rgb(0, 0, 0); fill: url(#gradient-1-0); paint-order: stroke;"
			points="382.085 205.495 380.179 76.599 356.672 108.988 339.903 83.178 322.642 106.277 312.288 79.841 295.208 104.305 283.476 80.607 263.325 106.657 244.213 85.158 229.353 104.045 215.244 81.628 196.976 102.406 186.325 81.07 168.352 108.713 154.706 85.577 137.762 108.111 116.148 87.655 109.436 205.557 133.784 204.739 132.476 230.796 150.758 222.346 153.463 156.749 231.241 177.213 245.13 178.024 259.33 175.5 333.106 153.69 335.77 216.871 355.418 227.515 355.513 203.084">
		</polygon>
		<polygon style="stroke: rgb(0, 0, 0); fill: url(#gradient-0-1);"
			points="108.435 204.785 93.761 205.948 85.606 217.294 84.719 233.59 92.021 270.492 97.339 277.051 106.784 280.985 131.766 281.505 131.204 307.98 209.355 378.572 212.723 386.017 220.131 389.031 245.96 391.22 275.424 387.129 279.324 377.025 357.085 308.679 357.255 281.084 384.312 280.316 392.644 275.529 396.013 267.731 405.255 228.29 402.95 217.299 395.098 205.473 354.935 202.432 353.99 227.468 333.625 216.875 330.964 153.296 250.42 179.075 239.261 178.774 228.628 178.479 154.834 157.603 151.739 222.842 132.397 229.877 131.719 204.034">
		</polygon>
		<path
			d="M 358.705 308.115 L 357.441 202.668 L 383.3 204.012 L 382.594 75.96 L 359.087 108.349 L 342.318 82.539 L 325.057 105.638 L 314.703 79.202 L 297.623 103.666 L 285.891 79.968 L 265.74 106.018 L 246.628 84.519 L 231.768 103.406 L 217.659 80.989 L 199.391 101.767 L 188.74 80.431 L 170.767 108.074 L 157.121 84.938 L 140.177 107.472 L 118.563 87.016 L 111.851 204.918 L 136.199 204.1 L 133.159 308.323 M 112.152 204.631 L 95.242 205.95 L 87.087 217.296 L 86.2 233.592 L 93.502 270.494 L 98.821 277.053 L 108.265 280.987 L 133.248 281.507 L 132.685 307.982 L 211.647 378.214 L 214.204 386.019 L 221.612 389.033 L 247.441 391.222 L 276.905 387.131 L 280.129 376.802 L 358.566 308.681 L 358.736 281.086 L 385.793 280.318 L 394.125 275.531 L 397.494 267.733 L 406.736 228.292 L 404.431 217.301 L 396.579 205.475 L 384.055 203.67"
			style="stroke: rgb(0, 0, 0); paint-order: stroke; stroke-width: 7px; fill: none;"></path>
		<path
			d="M 136.369 229.137 L 144.651 225.954 L 152.933 222.77 L 154.099 190.044 L 155.265 157.317 L 150.684 155.788 L 146.103 154.259 L 189.349 166.862 L 234.775 180.153 L 241.77 181.15 L 249.682 180.195 L 295.148 164.99 L 339.58 150.36 L 335.372 151.89 L 331.164 153.421 L 332.664 185.489 L 334.164 217.558 L 345.335 223.471 L 356.506 229.384"
			style="stroke: rgb(0, 0, 0); fill: none; stroke-width: 5px;"></path>
		<path d="M 102.724 230.241 L 118.742 256.353 M 120.728 232.818 L 104.103 254.41"
			style="fill: rgb(216, 216, 216); stroke: rgb(0, 0, 0); stroke-width: 3px;"></path>
		<path d="M 371.64 256.233 L 387.658 230.121 M 389.644 253.656 L 373.019 232.064"
			style="fill: rgb(216, 216, 216); stroke: rgb(0, 0, 0); stroke-width: 3px;"
			transform="matrix(-1, 0, 0, -1, 761.284074, 486.354027)"></path>
		<path style="stroke: rgb(0, 0, 0); stroke-width: 6px; fill: rgb(255, 255, 255);"
			d="M 172.294 266.668 L 170.4935 260.2136666666667 C 168.693 253.75933333333333 165.092 240.85066666666668 168.89533333333335 229.05866666666668 C 172.69866666666667 217.26666666666665 183.90633333333335 206.59133333333332 194.58433333333335 206.25366666666665 C 205.26233333333334 205.91600000000003 215.41066666666666 215.91600000000003 219.51016666666666 226.8888333333333 C 223.60966666666664 237.86166666666668 221.66033333333334 249.80733333333333 220.68566666666666 255.78016666666664 L 219.711 261.753 M 170.523 263.721 L 174.97333333333333 263.0108333333333 C 179.42366666666666 262.3006666666667 188.32433333333333 260.88033333333334 196.98466666666664 260.1045 C 205.64499999999998 259.3286666666666 214.06500000000003 259.1973333333333 218.275 259.13166666666666 L 222.485 259.066">
		</path>
		<path style="stroke: rgb(0, 0, 0); stroke-width: 6px; fill: rgb(255, 255, 255);"
			d="M 275.785 206.383 L 273.9845 212.8373333333333 C 272.184 219.29166666666666 268.583 232.20033333333333 272.38633333333337 243.99233333333333 C 276.1896666666667 255.78433333333336 287.39733333333334 266.4596666666667 298.07533333333333 266.7973333333333 C 308.75333333333333 267.135 318.9016666666667 257.135 323.0011666666667 246.16216666666665 C 327.10066666666665 235.18933333333334 325.1513333333333 223.24366666666666 324.1766666666667 217.27083333333334 L 323.202 211.298 M 274.014 209.33 L 278.46433333333334 210.04016666666666 C 282.9146666666667 210.75033333333332 291.81533333333334 212.17066666666668 300.4756666666667 212.94650000000001 C 309.136 213.72233333333335 317.556 213.85366666666667 321.766 213.91933333333336 L 325.976 213.985"
			transform="matrix(-1, 0, 0, -1, 596.68403, 473.188605)"></path>
		<g>
			<g transform="matrix(1, 0, 0, 1, -50.270088, -10.086763)">
				<ellipse style="fill: rgb(47, 153, 249);" cx="250" cy="250" rx="9.855" ry="9.855"></ellipse>
				<ellipse style="" cx="250.319" cy="250.048" rx="4.646" ry="4.646"></ellipse>
			</g>
		</g>
		<ellipse style="fill: rgb(47, 153, 249);" cx="292.443" cy="239.821" rx="9.855" ry="9.855"></ellipse>
		<ellipse style="" cx="292.762" cy="239.869" rx="4.646" ry="4.646"></ellipse>
		<polyline style="stroke: rgb(0, 0, 0); fill: rgba(0, 0, 0, 0.9);"
			points="216.874 385.315 209.173 351.708 211.072 386.054"></polyline>
		<polyline style="stroke: rgb(0, 0, 0); fill: rgba(0, 0, 0, 0.9);"
			points="282.041 353.164 274.34 386.771 276.239 352.425" transform="matrix(-1, 0, 0, -1, 556.38106, 739.195974)">
		</polyline>
		<path style="stroke: rgb(0, 0, 0); fill: url(#gradient-3-0); stroke-width: 4px;"
			d="M 332.11583333333334 312.1213333333333 C 331.6646666666667 309.5176666666667 330.76233333333334 304.31033333333335 322.8475 301.6471666666667 C 314.93266666666665 298.984 300.00533333333334 298.865 285.84183333333334 301.02666666666664 C 271.67833333333334 303.18833333333333 258.27866666666665 307.6306666666666 242.2601666666667 305.5743333333333 C 226.24166666666667 303.518 207.60433333333333 294.963 192.7195 294.17466666666667 C 177.83466666666666 293.38633333333337 166.7023333333333 300.36466666666666 162.688 309.0063333333334 C 158.67366666666666 317.64799999999997 161.77733333333333 327.953 179.38649999999998 334.5876666666667 C 196.9956666666667 341.2223333333333 229.11033333333333 344.18666666666667 256.69733333333335 343.3215 C 284.28433333333334 342.45633333333336 307.3436666666667 337.7616666666667 319.234 332.3573333333334 C 331.12433333333337 326.95300000000003 331.84566666666666 320.839 332.20633333333336 317.782 C 332.567 314.725 332.567 314.725 332.567 314.72499999999997 C 332.567 314.725 332.567 314.725 332.11583333333334 312.1213333333333">
		</path>
		<path style="fill: rgb(255, 253, 253);"
			d="M 235.88 304.882 C 235.88 304.882 217.0086278833799 298.2665684709027 209.084 296.441 C 202.9692168004208 295.03235904173243 197.78990253842488 294.1329468709446 192.539 293.98 C 187.7995074241668 293.84194934032126 182.6867011028918 294.11997484917816 178.966 295.197 C 176.10874627564982 296.02408447636736 174.0271442237026 297.419525086816 171.816 298.866 C 169.64067825989778 300.28904074579657 167.45069102663678 302.08930824649326 165.79 303.784 C 164.37298317679392 305.23002860276233 163.1369073904071 306.7736978023364 162.299 308.243 C 161.60554561683884 309.45899840366997 160.888 311.856 160.888 311.856">
		</path>
		<path style="stroke: rgb(0, 0, 0); fill: none; stroke-width: 4px;"
			d="M 332.11583333333334 312.1213333333333 C 331.6646666666667 309.5176666666667 330.76233333333334 304.31033333333335 322.8475 301.6471666666667 C 314.93266666666665 298.984 300.00533333333334 298.865 285.84183333333334 301.02666666666664 C 271.67833333333334 303.18833333333333 258.27866666666665 307.6306666666666 242.2601666666667 305.5743333333333 C 226.24166666666667 303.518 207.60433333333333 294.963 192.7195 294.17466666666667 C 177.83466666666666 293.38633333333337 166.7023333333333 300.36466666666666 162.688 309.0063333333334 C 158.67366666666666 317.64799999999997 161.77733333333333 327.953 179.38649999999998 334.5876666666667 C 196.9956666666667 341.2223333333333 229.11033333333333 344.18666666666667 256.69733333333335 343.3215 C 284.28433333333334 342.45633333333336 307.3436666666667 337.7616666666667 319.234 332.3573333333334 C 331.12433333333337 326.95300000000003 331.84566666666666 320.839 332.20633333333336 317.782 C 332.567 314.725 332.567 314.725 332.567 314.72499999999997 C 332.567 314.725 332.567 314.725 332.11583333333334 312.1213333333333">
		</path>
		<path style="fill: rgb(216, 216, 216); stroke: rgb(0, 0, 0); stroke-width: 4px;"
			d="M 235.859 304.718 L 161.858 311.685"></path>
		<path style="stroke: rgb(0, 0, 0); stroke-width: 3px; fill: rgb(247, 128, 128);"
			d="M 248.816 328.567 C 248.816 328.567 238.207 325.649 232.092 327.568 C 225.977 329.487 219.873 334.761 219.247 340.339 C 218.535 346.69 220.046 351.287 220.737 354.176 C 221.428 357.065 228.666 366.037 232.456 367.932 C 240.296 371.851 244.708 371.58 246.937 371.575 C 249.166 371.57 251.716 371.18 253.796 370.55 C 256.011 369.879 260.484 367.673 260.638 367.205 C 261.283 367.103 266.738 362.979 268.44 357.953 C 270.732 350.854 272.046 345.933 270.833 341.521 C 269.876 335.722 268.312 330.322 264.736 328.461 C 261.565 326.363 258.213 326.082 256.974 325.983 C 252.456 326.192 252.616 325.908 250.634 326.939 C 246.13 331.185 246.673 331.834 246.688 337.802 C 246.703 343.77 247.26 345.586 247.26 345.586">
		</path>
		<path style="stroke: rgb(0, 0, 0); fill: none; stroke-width: 4px;"
			d="M 217.905 340.848 C 219.089 355.984 228.666 366.037 232.456 367.932 C 240.296 371.851 244.708 371.58 246.937 371.575 C 249.166 371.57 251.716 371.18 253.796 370.55 C 256.011 369.879 259.889 367.709 261.057 366.912 C 262.398 365.868 266.738 362.326 268.44 357.3 C 270.732 350.201 273.097 346.91 272.247 340.505">
		</path>
	</g>
</svg>