<?xml version="1.0" encoding="utf-8"?>
<svg viewBox="10 1 194 269" xmlns="http://www.w3.org/2000/svg">
  <text x="35.004" y="27.512" style="fill: rgb(194, 194, 194); font-family: Roboto; font-size: 24px; white-space: pre;">BOOK COVER</text>
  <text x="13.394" y="59.368" style="fill: rgb(194, 194, 194); font-family: Roboto; font-size: 24px; white-space: pre;">NOT AVAILABLE</text>
  <rect x="17.783" y="81.191" width="178.434" height="182.876" style="stroke-linejoin: round; fill: none; stroke: rgb(194, 194, 194); stroke-width: 6;"/>
  <path d="M 99.386 207.59 L 69.157 195.323 L 69.595 136.398 L 99.604 148.446 Z M 114.394 148.446 L 144.404 136.398 L 144.842 195.323 L 114.613 207.59 Z M 101.962 148.295 L 112.037 148.295 L 112.037 208.096 L 101.962 208.096 Z M 76.093 132.483 C 76.093 132.483 96.926 140.12 101.722 146.503 C 101.863 146.691 76.093 136.864 76.093 136.864 Z M 138.051 136.864 C 138.051 136.864 112.281 146.691 112.421 146.503 C 117.217 140.12 138.051 132.483 138.051 132.483 Z M 84.417 130.95 C 84.417 130.95 93.341 135.442 97.56 138.398 C 100.142 140.207 103.458 143.387 103.911 145.407 C 103.919 145.437 99.833 142.197 97.615 140.862 C 93.48 138.374 84.636 134.455 84.636 134.455 Z M 129.508 134.455 C 129.508 134.455 120.663 138.374 116.529 140.862 C 114.31 142.197 110.225 145.437 110.231 145.407 C 110.685 143.387 114.002 140.207 116.584 138.398 C 120.801 135.442 129.727 130.95 129.727 130.95 Z M 113.348 135.923 C 115.304 133.719 120.616 130.471 120.616 130.471 C 120.616 130.471 120.808 134.488 120.808 134.584 C 120.808 134.68 115.993 136.841 113.634 138.697 C 112.27 139.77 109.422 142.948 109.426 142.905 C 109.666 140.542 111.511 137.994 113.348 135.923 Z M 104.716 142.905 C 104.721 142.948 101.873 139.77 100.508 138.697 C 98.15 136.841 93.336 134.68 93.336 134.584 C 93.336 134.488 93.527 130.471 93.527 130.471 C 93.527 130.471 98.839 133.719 100.796 135.923 C 102.632 137.994 104.477 140.542 104.716 142.905 Z M 105.865 144.509 C 105.865 144.509 105.489 139.275 105.672 136.667 C 105.823 134.539 107.012 130.546 107.012 130.546 C 107.019 130.546 107.041 130.592 107.072 130.675 C 107.102 130.592 107.124 130.546 107.131 130.546 C 107.131 130.546 108.321 134.539 108.471 136.667 C 108.655 139.275 108.279 144.509 108.279 144.509 C 108.279 144.509 107.722 144.529 107.106 144.551 L 107.106 144.553 C 107.095 144.553 107.084 144.552 107.072 144.552 C 107.06 144.552 107.048 144.553 107.036 144.553 L 107.036 144.551 C 106.421 144.529 105.865 144.509 105.865 144.509 Z" style="fill: rgb(194, 194, 194);"/>
</svg>